<?xml version="1.0" encoding="UTF-8"?>
<svg xmlns="http://www.w3.org/2000/svg" xmlns:xlink="http://www.w3.org/1999/xlink" width="37px" height="37px" viewBox="0 0 37 37" version="1.1">
<g id="surface1">
<path style=" stroke:none;fill-rule:nonzero;fill:rgb(73.333333%,82.745098%,87.45098%);fill-opacity:1;" d="M 11.960938 34.441406 C 11.957031 34.441406 11.949219 34.441406 11.945312 34.441406 L 12.074219 36.136719 L 16.460938 36.136719 L 16.585938 34.441406 C 16.582031 34.441406 16.578125 34.441406 16.570312 34.441406 Z M 11.960938 34.441406 "/>
<path style=" stroke:none;fill-rule:nonzero;fill:rgb(55.686275%,71.372549%,79.215686%);fill-opacity:1;" d="M 15.730469 3.460938 C 15.730469 3.703125 15.535156 3.894531 15.296875 3.894531 C 15.058594 3.894531 14.863281 3.703125 14.863281 3.460938 L 14.863281 3.085938 L 14.335938 3.085938 L 14.335938 4.417969 C 14.335938 4.761719 14.207031 5.070312 13.957031 5.3125 C 13.40625 5.855469 12.332031 6 11.414062 6.015625 C 11.316406 7.632812 11.238281 9.988281 11.238281 13.347656 C 11.238281 14.734375 11.265625 16.207031 11.316406 17.703125 L 15.066406 17.703125 C 15.191406 17.703125 15.308594 17.757812 15.390625 17.851562 C 15.472656 17.945312 15.511719 18.070312 15.496094 18.195312 L 15.277344 19.789062 C 15.246094 20 15.0625 20.160156 14.847656 20.160156 L 11.414062 20.160156 C 11.691406 26.199219 12.210938 32.039062 12.355469 33.578125 L 16.160156 33.578125 C 16.214844 32.511719 16.378906 29.484375 16.625 25.828125 L 13.90625 25.828125 C 13.667969 25.828125 13.472656 25.632812 13.472656 25.394531 L 13.472656 23.800781 C 13.472656 23.5625 13.667969 23.371094 13.90625 23.371094 L 16.796875 23.371094 C 17.125 18.882812 17.558594 13.933594 18.066406 10.582031 L 18.066406 10.542969 L 15.746094 10.542969 C 15.507812 10.542969 15.3125 10.351562 15.3125 10.113281 C 15.3125 9.875 15.507812 9.679688 15.746094 9.679688 L 18.066406 9.679688 L 18.066406 9.027344 L 13.820312 9.027344 C 13.582031 9.027344 13.386719 8.832031 13.386719 8.59375 C 13.386719 8.355469 13.582031 8.160156 13.820312 8.160156 L 18.066406 8.160156 L 18.066406 3.085938 L 15.730469 3.085938 Z M 15.730469 3.460938 "/>
<path style=" stroke:none;fill-rule:nonzero;fill:rgb(73.333333%,82.745098%,87.45098%);fill-opacity:1;" d="M 14.335938 24.964844 L 16.683594 24.964844 C 16.699219 24.722656 16.71875 24.480469 16.734375 24.234375 L 14.335938 24.234375 Z M 14.335938 24.964844 "/>
<path style=" stroke:none;fill-rule:nonzero;fill:rgb(73.333333%,82.745098%,87.45098%);fill-opacity:1;" d="M 14.570312 18.566406 L 11.347656 18.566406 C 11.355469 18.808594 11.367188 19.054688 11.375 19.296875 L 14.472656 19.296875 Z M 14.570312 18.566406 "/>
<path style=" stroke:none;fill-rule:nonzero;fill:rgb(55.686275%,71.372549%,79.215686%);fill-opacity:1;" d="M 11.769531 0.863281 L 14.863281 0.863281 L 14.863281 2.222656 L 11.769531 2.222656 Z M 11.769531 0.863281 "/>
<path style=" stroke:none;fill-rule:nonzero;fill:rgb(55.686275%,71.372549%,79.215686%);fill-opacity:1;" d="M 15.730469 0.863281 L 18.066406 0.863281 L 18.066406 2.222656 L 15.730469 2.222656 Z M 15.730469 0.863281 "/>
<path style=" stroke:none;fill-rule:nonzero;fill:rgb(73.333333%,82.745098%,87.45098%);fill-opacity:1;" d="M 13.472656 4.417969 L 13.472656 3.085938 L 11.695312 3.085938 C 11.640625 3.425781 11.554688 4.066406 11.472656 5.148438 C 12.390625 5.125 13.082031 4.964844 13.351562 4.695312 C 13.433594 4.613281 13.472656 4.53125 13.472656 4.417969 Z M 13.472656 4.417969 "/>
<path style=" stroke:none;fill-rule:nonzero;fill:rgb(73.333333%,82.745098%,87.45098%);fill-opacity:1;" d="M 20.429688 34.441406 C 20.421875 34.441406 20.417969 34.441406 20.414062 34.441406 L 20.539062 36.136719 L 24.925781 36.136719 L 25.054688 34.441406 C 25.050781 34.441406 25.042969 34.441406 25.039062 34.441406 Z M 20.429688 34.441406 "/>
<path style=" stroke:none;fill-rule:nonzero;fill:rgb(55.686275%,71.372549%,79.215686%);fill-opacity:1;" d="M 23.042969 5.3125 C 22.792969 5.070312 22.664062 4.761719 22.664062 4.417969 L 22.664062 3.085938 L 22.136719 3.085938 L 22.136719 3.460938 C 22.136719 3.703125 21.941406 3.894531 21.703125 3.894531 C 21.464844 3.894531 21.269531 3.703125 21.269531 3.460938 L 21.269531 3.085938 L 20.703125 3.085938 L 20.703125 6.289062 C 20.703125 7.070312 20.542969 7.699219 20.234375 8.160156 L 23.179688 8.160156 C 23.417969 8.160156 23.613281 8.355469 23.613281 8.59375 C 23.613281 8.832031 23.417969 9.027344 23.179688 9.027344 L 18.933594 9.027344 L 18.933594 9.679688 L 21.253906 9.679688 C 21.492188 9.679688 21.6875 9.875 21.6875 10.113281 C 21.6875 10.351562 21.492188 10.542969 21.253906 10.542969 L 18.933594 10.542969 L 18.933594 10.582031 C 19.972656 17.457031 20.707031 31.042969 20.839844 33.578125 L 24.644531 33.578125 C 24.769531 32.246094 25.175781 27.695312 25.460938 22.582031 L 22.507812 22.582031 C 22.289062 22.582031 22.109375 22.421875 22.078125 22.210938 L 21.859375 20.617188 C 21.84375 20.492188 21.878906 20.367188 21.960938 20.273438 C 22.042969 20.179688 22.164062 20.125 22.289062 20.125 L 25.585938 20.125 C 25.691406 17.816406 25.761719 15.480469 25.761719 13.347656 C 25.761719 9.988281 25.683594 7.632812 25.585938 6.015625 C 24.667969 6 23.59375 5.855469 23.042969 5.3125 Z M 23.042969 5.3125 "/>
<path style=" stroke:none;fill-rule:nonzero;fill:rgb(55.686275%,71.372549%,79.215686%);fill-opacity:1;" d="M 19.835938 6.289062 L 19.835938 3.085938 L 18.933594 3.085938 L 18.933594 8.117188 C 19.070312 8.074219 19.230469 8 19.371094 7.863281 C 19.675781 7.558594 19.835938 7.015625 19.835938 6.289062 Z M 19.835938 6.289062 "/>
<path style=" stroke:none;fill-rule:nonzero;fill:rgb(73.333333%,82.745098%,87.45098%);fill-opacity:1;" d="M 22.882812 21.71875 L 25.507812 21.71875 C 25.519531 21.476562 25.535156 21.234375 25.546875 20.988281 L 22.785156 20.988281 Z M 22.882812 21.71875 "/>
<path style=" stroke:none;fill-rule:nonzero;fill:rgb(73.333333%,82.745098%,87.45098%);fill-opacity:1;" d="M 23.527344 4.417969 C 23.527344 4.527344 23.5625 4.613281 23.648438 4.695312 C 23.917969 4.964844 24.609375 5.125 25.527344 5.148438 C 25.445312 4.066406 25.359375 3.425781 25.304688 3.085938 L 23.527344 3.085938 Z M 23.527344 4.417969 "/>
<path style=" stroke:none;fill-rule:nonzero;fill:rgb(55.686275%,71.372549%,79.215686%);fill-opacity:1;" d="M 22.136719 0.863281 L 25.230469 0.863281 L 25.230469 2.222656 L 22.136719 2.222656 Z M 22.136719 0.863281 "/>
<path style=" stroke:none;fill-rule:nonzero;fill:rgb(55.686275%,71.372549%,79.215686%);fill-opacity:1;" d="M 21.269531 0.863281 L 18.933594 0.863281 L 18.933594 2.222656 L 21.269531 2.222656 Z M 20.035156 1.847656 C 19.953125 1.929688 19.84375 1.972656 19.730469 1.972656 C 19.613281 1.972656 19.503906 1.929688 19.421875 1.847656 C 19.34375 1.769531 19.296875 1.65625 19.296875 1.542969 C 19.296875 1.429688 19.34375 1.316406 19.421875 1.238281 C 19.503906 1.15625 19.613281 1.109375 19.730469 1.109375 C 19.84375 1.109375 19.953125 1.15625 20.035156 1.238281 C 20.113281 1.316406 20.160156 1.429688 20.160156 1.542969 C 20.160156 1.65625 20.113281 1.769531 20.035156 1.847656 Z M 20.035156 1.847656 "/>
<path style=" stroke:none;fill-rule:nonzero;fill:rgb(24.705882%,20.784314%,18.431373%);fill-opacity:1;" d="M 19.730469 1.109375 C 19.613281 1.109375 19.503906 1.15625 19.421875 1.238281 C 19.34375 1.316406 19.296875 1.429688 19.296875 1.542969 C 19.296875 1.65625 19.34375 1.769531 19.421875 1.847656 C 19.503906 1.929688 19.613281 1.972656 19.730469 1.972656 C 19.84375 1.972656 19.953125 1.929688 20.035156 1.847656 C 20.113281 1.769531 20.160156 1.65625 20.160156 1.542969 C 20.160156 1.429688 20.113281 1.316406 20.035156 1.238281 C 19.953125 1.15625 19.84375 1.109375 19.730469 1.109375 Z M 19.730469 1.109375 "/>
<path style=" stroke:none;fill-rule:nonzero;fill:rgb(24.705882%,20.784314%,18.431373%);fill-opacity:1;" d="M 26.09375 2.605469 L 26.09375 0.433594 C 26.09375 0.195312 25.902344 0 25.664062 0 L 11.335938 0 C 11.097656 0 10.90625 0.195312 10.90625 0.433594 L 10.90625 2.605469 C 10.8125 3.011719 10.371094 5.382812 10.371094 13.347656 C 10.371094 21.023438 11.273438 31.277344 11.488281 33.578125 C 11.472656 33.578125 11.460938 33.578125 11.445312 33.578125 C 11.207031 33.597656 11.03125 33.804688 11.046875 34.042969 L 11.242188 36.601562 C 11.257812 36.824219 11.445312 37 11.671875 37 L 16.859375 37 C 17.085938 37 17.273438 36.824219 17.292969 36.601562 L 17.484375 34.042969 C 17.503906 33.804688 17.324219 33.597656 17.085938 33.578125 C 17.066406 33.578125 17.046875 33.578125 17.027344 33.578125 C 17.144531 31.328125 17.695312 21.132812 18.5 13.984375 C 19.304688 21.132812 19.855469 31.328125 19.972656 33.578125 C 19.953125 33.578125 19.933594 33.578125 19.914062 33.578125 C 19.675781 33.597656 19.496094 33.804688 19.515625 34.042969 L 19.707031 36.601562 C 19.726562 36.824219 19.914062 37 20.140625 37 L 25.328125 37 C 25.554688 37 25.742188 36.824219 25.757812 36.601562 L 25.953125 34.042969 C 25.96875 33.804688 25.792969 33.597656 25.554688 33.578125 C 25.539062 33.578125 25.527344 33.578125 25.511719 33.578125 C 25.726562 31.277344 26.628906 21.023438 26.628906 13.347656 C 26.628906 5.382812 26.1875 3.007812 26.09375 2.605469 Z M 11.769531 0.863281 L 14.863281 0.863281 L 14.863281 2.222656 L 11.769531 2.222656 Z M 11.695312 3.085938 L 13.472656 3.085938 L 13.472656 4.417969 C 13.472656 4.53125 13.433594 4.613281 13.351562 4.695312 C 13.082031 4.964844 12.390625 5.125 11.472656 5.148438 C 11.554688 4.066406 11.640625 3.425781 11.695312 3.085938 Z M 11.347656 18.566406 L 14.570312 18.566406 L 14.472656 19.296875 L 11.375 19.296875 C 11.367188 19.054688 11.355469 18.808594 11.347656 18.566406 Z M 16.460938 36.136719 L 12.074219 36.136719 L 11.945312 34.441406 C 11.949219 34.441406 11.957031 34.441406 11.960938 34.441406 L 16.570312 34.441406 C 16.578125 34.441406 16.582031 34.441406 16.585938 34.441406 Z M 16.683594 24.964844 L 14.335938 24.964844 L 14.335938 24.234375 L 16.734375 24.234375 C 16.71875 24.480469 16.699219 24.722656 16.683594 24.964844 Z M 18.066406 8.160156 L 13.820312 8.160156 C 13.582031 8.160156 13.386719 8.355469 13.386719 8.59375 C 13.386719 8.832031 13.582031 9.027344 13.820312 9.027344 L 18.066406 9.027344 L 18.066406 9.679688 L 15.746094 9.679688 C 15.507812 9.679688 15.3125 9.875 15.3125 10.113281 C 15.3125 10.351562 15.507812 10.542969 15.746094 10.542969 L 18.066406 10.542969 L 18.066406 10.582031 C 17.558594 13.933594 17.125 18.882812 16.796875 23.371094 L 13.90625 23.371094 C 13.667969 23.371094 13.472656 23.5625 13.472656 23.800781 L 13.472656 25.394531 C 13.472656 25.632812 13.667969 25.828125 13.90625 25.828125 L 16.625 25.828125 C 16.378906 29.484375 16.214844 32.511719 16.160156 33.578125 L 12.355469 33.578125 C 12.210938 32.039062 11.691406 26.199219 11.414062 20.160156 L 14.847656 20.160156 C 15.0625 20.160156 15.246094 20 15.277344 19.789062 L 15.496094 18.195312 C 15.511719 18.070312 15.472656 17.945312 15.390625 17.851562 C 15.308594 17.757812 15.191406 17.703125 15.066406 17.703125 L 11.316406 17.703125 C 11.265625 16.207031 11.238281 14.734375 11.238281 13.347656 C 11.238281 9.988281 11.316406 7.632812 11.414062 6.015625 C 12.332031 6 13.40625 5.855469 13.957031 5.3125 C 14.207031 5.070312 14.335938 4.761719 14.335938 4.417969 L 14.335938 3.085938 L 14.863281 3.085938 L 14.863281 3.460938 C 14.863281 3.703125 15.058594 3.894531 15.296875 3.894531 C 15.535156 3.894531 15.730469 3.703125 15.730469 3.460938 L 15.730469 3.085938 L 18.066406 3.085938 Z M 18.066406 2.222656 L 15.730469 2.222656 L 15.730469 0.863281 L 18.066406 0.863281 Z M 25.527344 5.148438 C 24.609375 5.125 23.917969 4.964844 23.648438 4.695312 C 23.5625 4.613281 23.527344 4.527344 23.527344 4.417969 L 23.527344 3.085938 L 25.304688 3.085938 C 25.359375 3.425781 25.445312 4.066406 25.527344 5.148438 Z M 22.136719 0.863281 L 25.230469 0.863281 L 25.230469 2.222656 L 22.136719 2.222656 Z M 18.933594 0.863281 L 21.269531 0.863281 L 21.269531 2.222656 L 18.933594 2.222656 Z M 18.933594 3.085938 L 19.835938 3.085938 L 19.835938 6.289062 C 19.835938 7.015625 19.675781 7.558594 19.371094 7.863281 C 19.230469 8 19.070312 8.074219 18.933594 8.117188 Z M 24.925781 36.136719 L 20.539062 36.136719 L 20.414062 34.441406 C 20.417969 34.441406 20.421875 34.441406 20.429688 34.441406 L 25.039062 34.441406 C 25.042969 34.441406 25.050781 34.441406 25.054688 34.441406 Z M 25.507812 21.71875 L 22.882812 21.71875 L 22.785156 20.988281 L 25.546875 20.988281 C 25.535156 21.234375 25.519531 21.476562 25.507812 21.71875 Z M 25.585938 20.125 L 22.289062 20.125 C 22.164062 20.125 22.042969 20.179688 21.960938 20.273438 C 21.878906 20.367188 21.84375 20.492188 21.859375 20.617188 L 22.078125 22.210938 C 22.109375 22.421875 22.289062 22.582031 22.507812 22.582031 L 25.460938 22.582031 C 25.175781 27.695312 24.769531 32.246094 24.644531 33.578125 L 20.839844 33.578125 C 20.707031 31.042969 19.972656 17.457031 18.933594 10.582031 L 18.933594 10.542969 L 21.253906 10.542969 C 21.492188 10.542969 21.6875 10.351562 21.6875 10.113281 C 21.6875 9.875 21.492188 9.679688 21.253906 9.679688 L 18.933594 9.679688 L 18.933594 9.027344 L 23.179688 9.027344 C 23.417969 9.027344 23.613281 8.832031 23.613281 8.59375 C 23.613281 8.355469 23.417969 8.160156 23.179688 8.160156 L 20.234375 8.160156 C 20.542969 7.699219 20.703125 7.070312 20.703125 6.289062 L 20.703125 3.085938 L 21.269531 3.085938 L 21.269531 3.460938 C 21.269531 3.703125 21.464844 3.894531 21.703125 3.894531 C 21.941406 3.894531 22.136719 3.703125 22.136719 3.460938 L 22.136719 3.085938 L 22.664062 3.085938 L 22.664062 4.417969 C 22.664062 4.761719 22.792969 5.070312 23.042969 5.3125 C 23.59375 5.855469 24.667969 6 25.585938 6.015625 C 25.683594 7.632812 25.761719 9.988281 25.761719 13.347656 C 25.761719 15.480469 25.691406 17.816406 25.585938 20.125 Z M 25.585938 20.125 "/>
</g>
</svg>
