<?xml version="1.0" encoding="UTF-8"?>
<svg xmlns="http://www.w3.org/2000/svg" xmlns:xlink="http://www.w3.org/1999/xlink" width="37px" height="37px" viewBox="0 0 37 37" version="1.1">
<g id="surface1">
<path style=" stroke:none;fill-rule:nonzero;fill:rgb(0%,0%,0%);fill-opacity:1;" d="M 29.289062 37 L 19.621094 37 C 19.332031 37 19.097656 36.765625 19.097656 36.476562 L 19.097656 13.929688 L 17.726562 13.925781 L 17.726562 36.476562 C 17.726562 36.765625 17.492188 37 17.203125 37 L 7.710938 37 C 7.421875 37 7.1875 36.765625 7.1875 36.476562 L 7.1875 4.023438 C 7.1875 3.304688 7.554688 2.671875 8.109375 2.300781 L 8.109375 0.523438 C 8.109375 0.234375 8.34375 0 8.632812 0 L 28.585938 0 C 28.875 0 29.109375 0.234375 29.109375 0.523438 L 29.109375 2.46875 C 29.539062 2.847656 29.8125 3.40625 29.8125 4.023438 L 29.8125 36.476562 C 29.8125 36.765625 29.578125 37 29.289062 37 Z M 20.144531 35.953125 L 28.765625 35.953125 L 28.765625 8.621094 L 28.476562 8.621094 C 26.039062 8.621094 24.054688 6.636719 24.054688 4.199219 L 24.054688 2.996094 L 21.140625 2.996094 L 21.140625 9.101562 C 21.140625 9.902344 20.695312 10.621094 19.980469 10.976562 L 19.023438 11.457031 L 19.023438 12.882812 L 19.621094 12.886719 C 19.910156 12.886719 20.144531 13.121094 20.144531 13.40625 Z M 8.234375 35.953125 L 16.683594 35.953125 L 16.683594 13.402344 C 16.683594 13.261719 16.738281 13.128906 16.835938 13.03125 C 16.933594 12.933594 17.066406 12.878906 17.203125 12.878906 C 17.203125 12.878906 17.207031 12.878906 17.207031 12.878906 L 17.976562 12.878906 L 17.976562 2.996094 L 12.945312 2.996094 L 12.945312 4.199219 C 12.945312 6.636719 10.960938 8.621094 8.523438 8.621094 L 8.234375 8.621094 Z M 19.023438 2.996094 L 19.023438 10.289062 L 19.511719 10.042969 C 19.871094 9.863281 20.09375 9.503906 20.09375 9.101562 L 20.09375 2.996094 Z M 25.101562 2.996094 L 25.101562 4.199219 C 25.101562 6.0625 26.617188 7.578125 28.476562 7.578125 L 28.765625 7.578125 L 28.765625 4.023438 C 28.765625 3.457031 28.304688 2.996094 27.738281 2.996094 Z M 8.234375 7.578125 L 8.523438 7.578125 C 10.382812 7.578125 11.898438 6.0625 11.898438 4.199219 L 11.898438 2.996094 L 9.261719 2.996094 C 8.695312 2.996094 8.234375 3.457031 8.234375 4.023438 Z M 24.578125 1.949219 L 28.0625 1.949219 L 28.0625 1.046875 L 9.15625 1.046875 L 9.15625 1.949219 Z M 24.578125 1.949219 "/>
</g>
</svg>
