<?xml version="1.0" encoding="UTF-8"?>
<svg xmlns="http://www.w3.org/2000/svg" xmlns:xlink="http://www.w3.org/1999/xlink" width="37px" height="37px" viewBox="0 0 37 37" version="1.1">
<g id="surface1">
<path style="fill-rule:nonzero;fill:rgb(100%,100%,100%);fill-opacity:1;stroke-width:5;stroke-linecap:butt;stroke-linejoin:miter;stroke:rgb(0%,0%,0%);stroke-opacity:1;stroke-miterlimit:4;" d="M 406.581503 245.4907 C 360.741132 288.389244 377.27935 330.254742 366.71136 372.555206 L 553.572635 372.555206 C 539.77935 329.43918 552.062922 272.186752 509.379223 244.72951 C 473.420608 237.661309 439.177576 237.77005 406.581503 245.4907 Z M 406.581503 245.4907 " transform="matrix(0.0569231,0,0,0.0718447,-7.542308,-17.031727)"/>
<path style="fill-rule:nonzero;fill:rgb(100%,100%,100%);fill-opacity:1;stroke-width:5;stroke-linecap:butt;stroke-linejoin:miter;stroke:rgb(0%,0%,0%);stroke-opacity:1;stroke-miterlimit:4;" d="M 188.565245 700.465363 L 134.970439 675.835401 L 157.890625 634.404869 C 153.086993 625.324949 159.263091 616.2994 163.58636 607.273851 C 203.662373 524.793382 250.532095 421.923872 282.167441 325.95945 C 286.422086 317.586351 291.774704 310.083184 303.577914 307.364645 C 340.222762 290.074738 355.663007 283.006537 392.376478 275.122774 C 403.013091 309.430734 455.921664 339.660886 477.469383 384.516777 L 483.165118 687.362005 L 476.028294 747.387343 L 315.449747 731.674189 C 322.723818 608.850603 319.704392 544.91057 318.126056 448.891777 C 293.490287 523.869079 249.296875 605.533986 219.308488 658.654235 C 215.259713 661.209662 217.249789 666.70111 206.407306 665.831178 L 204.6231 676.868445 Z M 188.565245 700.465363 " transform="matrix(0.0569231,0,0,0.0718447,-7.542308,-17.031727)"/>
<path style="fill-rule:nonzero;fill:rgb(100%,100%,100%);fill-opacity:1;stroke-width:5;stroke-linecap:butt;stroke-linejoin:miter;stroke:rgb(0%,0%,0%);stroke-opacity:1;stroke-miterlimit:4;" d="M 458.048986 353.144839 L 404.454181 326.394417 L 344.271537 361.517939 L 379.543919 267.782719 L 402.052365 248.861689 C 396.15076 279.418065 406.71875 286.975603 413.512458 299.807107 Z M 458.048986 353.144839 " transform="matrix(0.0569231,0,0,0.0718447,-7.542308,-17.031727)"/>
<path style=" stroke:none;fill-rule:nonzero;fill:rgb(0%,0%,0%);fill-opacity:1;" d="M 3.640625 31.285156 C 3.640625 31.507812 3.5 31.6875 3.324219 31.6875 C 3.152344 31.6875 3.007812 31.507812 3.007812 31.285156 C 3.007812 31.066406 3.152344 30.886719 3.324219 30.886719 C 3.5 30.886719 3.640625 31.066406 3.640625 31.285156 Z M 3.640625 31.285156 "/>
<path style="fill-rule:nonzero;fill:rgb(100%,100%,100%);fill-opacity:1;stroke-width:5;stroke-linecap:butt;stroke-linejoin:miter;stroke:rgb(0%,0%,0%);stroke-opacity:1;stroke-miterlimit:4;" d="M 726.572002 702.477081 L 780.166807 677.847119 L 757.315245 636.416587 C 762.050253 627.391038 755.942779 618.311119 751.61951 609.28557 C 711.543497 526.805101 664.673775 423.935591 633.038429 327.971169 C 628.783784 319.59807 623.362542 312.094902 611.627956 309.376363 C 574.914485 292.086456 560.50359 283.006537 523.790118 275.122774 C 513.153505 309.430734 459.215583 341.672605 437.667863 386.528496 L 431.972128 689.373724 L 439.108953 749.399062 L 599.6875 733.685907 C 592.413429 610.916693 595.432855 546.922288 597.079814 450.903496 C 621.646959 525.880798 665.840372 607.545705 695.897382 660.720325 C 699.877534 663.22138 697.956081 668.712829 708.729941 667.842896 L 710.514147 678.934535 Z M 726.572002 702.477081 " transform="matrix(0.0569231,0,0,0.0718447,-7.542308,-17.031727)"/>
<path style=" stroke:none;fill-rule:nonzero;fill:rgb(0%,0%,0%);fill-opacity:1;" d="M 34.007812 31.492188 C 34.007812 31.714844 33.867188 31.890625 33.691406 31.890625 C 33.515625 31.890625 33.375 31.714844 33.375 31.492188 C 33.375 31.273438 33.515625 31.09375 33.691406 31.09375 C 33.867188 31.09375 34.007812 31.273438 34.007812 31.492188 Z M 34.007812 31.492188 "/>
<path style=" stroke:none;fill-rule:nonzero;fill:rgb(0%,0%,0%);fill-opacity:1;" d="M 18.511719 11.148438 C 18.511719 11.367188 18.371094 11.546875 18.195312 11.546875 C 18.023438 11.546875 17.878906 11.367188 17.878906 11.148438 C 17.878906 10.929688 18.023438 10.75 18.195312 10.75 C 18.371094 10.75 18.511719 10.929688 18.511719 11.148438 Z M 18.511719 11.148438 "/>
<path style=" stroke:none;fill-rule:nonzero;fill:rgb(0%,0%,0%);fill-opacity:1;" d="M 18.523438 17.183594 C 18.523438 17.402344 18.382812 17.582031 18.207031 17.582031 C 18.03125 17.582031 17.890625 17.402344 17.890625 17.183594 C 17.890625 16.960938 18.03125 16.785156 18.207031 16.785156 C 18.382812 16.785156 18.523438 16.960938 18.523438 17.183594 Z M 18.523438 17.183594 "/>
<path style=" stroke:none;fill-rule:nonzero;fill:rgb(0%,0%,0%);fill-opacity:1;" d="M 18.523438 23.339844 C 18.523438 23.5625 18.382812 23.738281 18.207031 23.738281 C 18.03125 23.738281 17.890625 23.5625 17.890625 23.339844 C 17.890625 23.121094 18.03125 22.941406 18.207031 22.941406 C 18.382812 22.941406 18.523438 23.121094 18.523438 23.339844 Z M 18.523438 23.339844 "/>
<path style=" stroke:none;fill-rule:nonzero;fill:rgb(0%,0%,0%);fill-opacity:1;" d="M 18.441406 29.191406 C 18.441406 29.410156 18.300781 29.589844 18.125 29.589844 C 17.949219 29.589844 17.808594 29.410156 17.808594 29.191406 C 17.808594 28.96875 17.949219 28.792969 18.125 28.792969 C 18.300781 28.792969 18.441406 28.96875 18.441406 29.191406 Z M 18.441406 29.191406 "/>
<path style="fill-rule:nonzero;fill:rgb(100%,100%,100%);fill-opacity:1;stroke-width:5;stroke-linecap:butt;stroke-linejoin:miter;stroke:rgb(0%,0%,0%);stroke-opacity:1;stroke-miterlimit:4;" d="M 457.980363 352.438019 L 511.575169 325.687597 L 571.757812 360.811119 L 536.485431 267.075899 L 513.976985 248.100498 C 519.87859 278.711245 509.379223 286.268783 502.585515 299.100287 Z M 457.980363 352.438019 " transform="matrix(0.0569231,0,0,0.0718447,-7.542308,-17.031727)"/>
<path style=" stroke:none;fill-rule:nonzero;fill:rgb(0%,0%,0%);fill-opacity:1;" d="M 17.875 2.839844 L 19.195312 2.839844 L 19.195312 3.746094 L 17.875 3.746094 Z M 17.875 2.839844 "/>
<path style="fill:none;stroke-width:5;stroke-linecap:butt;stroke-linejoin:miter;stroke:rgb(0%,0%,0%);stroke-opacity:1;stroke-miterlimit:4;" d="M 403.905194 282.027863 C 442.951858 273.111055 478.567356 275.285886 512.879012 282.027863 " transform="matrix(0.0569231,0,0,0.0718447,-7.542308,-17.031727)"/>
</g>
</svg>
