<?xml version="1.0" encoding="UTF-8"?>
<svg xmlns="http://www.w3.org/2000/svg" xmlns:xlink="http://www.w3.org/1999/xlink" width="37px" height="37px" viewBox="0 0 37 37" version="1.1">
<g id="surface1">
<path style=" stroke:none;fill-rule:nonzero;fill:rgb(0%,0%,0%);fill-opacity:1;" d="M 19.710938 18.863281 C 19.59375 18.863281 19.472656 18.816406 19.390625 18.730469 C 19.304688 18.644531 19.257812 18.527344 19.257812 18.410156 C 19.257812 18.289062 19.304688 18.171875 19.390625 18.085938 C 19.472656 18.003906 19.59375 17.953125 19.710938 17.953125 C 19.832031 17.953125 19.949219 18.003906 20.03125 18.085938 C 20.117188 18.171875 20.167969 18.289062 20.167969 18.410156 C 20.167969 18.527344 20.117188 18.644531 20.03125 18.730469 C 19.949219 18.816406 19.832031 18.863281 19.710938 18.863281 Z M 19.710938 18.863281 "/>
<path style=" stroke:none;fill-rule:nonzero;fill:rgb(0%,0%,0%);fill-opacity:1;" d="M 19.710938 25.007812 C 19.59375 25.007812 19.472656 24.957031 19.390625 24.875 C 19.304688 24.789062 19.257812 24.671875 19.257812 24.554688 C 19.257812 24.433594 19.304688 24.316406 19.390625 24.230469 C 19.472656 24.148438 19.59375 24.097656 19.710938 24.097656 C 19.832031 24.097656 19.949219 24.148438 20.03125 24.230469 C 20.117188 24.316406 20.167969 24.433594 20.167969 24.554688 C 20.167969 24.671875 20.117188 24.789062 20.03125 24.875 C 19.949219 24.957031 19.832031 25.007812 19.710938 25.007812 Z M 19.710938 25.007812 "/>
<path style=" stroke:none;fill-rule:nonzero;fill:rgb(0%,0%,0%);fill-opacity:1;" d="M 25.417969 12.527344 L 24.011719 10.117188 L 24.007812 10.117188 C 23.96875 10.054688 23.84375 9.894531 23.625 9.894531 C 23.46875 9.894531 23.3125 9.972656 23.226562 10.117188 L 21.816406 12.527344 C 21.734375 12.667969 21.734375 12.839844 21.816406 12.984375 C 21.894531 13.125 22.046875 13.210938 22.210938 13.210938 L 25.027344 13.210938 C 25.1875 13.210938 25.339844 13.125 25.417969 12.984375 C 25.5 12.839844 25.5 12.667969 25.417969 12.527344 Z M 23 12.300781 L 23.617188 11.25 L 24.234375 12.300781 Z M 23 12.300781 "/>
<path style=" stroke:none;fill-rule:nonzero;fill:rgb(0%,0%,0%);fill-opacity:1;" d="M 31.039062 11.546875 C 30.933594 4.582031 29.234375 3.753906 28.851562 3.65625 C 26.339844 2.972656 21.894531 0.101562 21.851562 0.0742188 C 21.777344 0.0273438 21.691406 0 21.601562 0 L 15.398438 0 C 15.308594 0 15.222656 0.0273438 15.148438 0.0742188 C 15.105469 0.101562 10.664062 2.972656 8.148438 3.65625 C 7.765625 3.753906 6.066406 4.582031 5.960938 11.546875 C 5.851562 18.53125 5.527344 34.226562 5.527344 34.386719 C 5.523438 34.542969 5.597656 34.6875 5.730469 34.773438 C 5.773438 34.800781 6.484375 35.261719 7.75 35.261719 C 8.238281 35.261719 8.808594 35.191406 9.453125 35.003906 C 9.480469 35.265625 9.515625 35.507812 9.558594 35.730469 C 9.585938 35.875 9.683594 36 9.816406 36.058594 C 9.910156 36.101562 11.910156 37 14.015625 37 C 14.234375 37 14.710938 36.964844 14.730469 36.960938 C 14.808594 36.941406 15.972656 36.660156 17.128906 35.460938 L 19.871094 35.460938 C 21.027344 36.660156 22.191406 36.941406 22.269531 36.960938 C 22.289062 36.964844 22.765625 37 22.984375 37 C 25.085938 37 27.089844 36.101562 27.183594 36.058594 C 27.316406 36 27.414062 35.875 27.441406 35.730469 C 27.484375 35.507812 27.515625 35.265625 27.542969 35.003906 C 28.191406 35.191406 28.761719 35.261719 29.25 35.261719 C 30.515625 35.261719 31.226562 34.804688 31.269531 34.773438 C 31.402344 34.6875 31.476562 34.542969 31.472656 34.386719 C 31.472656 34.226562 31.148438 18.53125 31.039062 11.546875 Z M 21.722656 2.902344 C 21.878906 2.28125 21.980469 1.734375 22.03125 1.261719 C 22.253906 1.402344 22.523438 1.566406 22.828125 1.746094 L 23.332031 3.125 L 22.585938 3.535156 C 22.453125 3.609375 22.363281 3.746094 22.351562 3.898438 C 22.339844 4.054688 22.410156 4.203125 22.53125 4.296875 L 23.378906 4.929688 C 22.601562 7.839844 20.230469 11.953125 18.953125 14.046875 L 18.953125 13.328125 C 19.570312 11.042969 21.039062 5.585938 21.722656 2.902344 Z M 21.148438 0.910156 C 21.125 1.378906 21.019531 1.972656 20.84375 2.679688 C 20.289062 4.859375 19.214844 8.871094 18.5 11.523438 C 17.785156 8.871094 16.710938 4.859375 16.15625 2.679688 C 15.976562 1.972656 15.878906 1.378906 15.851562 0.910156 Z M 14.648438 3.898438 C 14.636719 3.746094 14.546875 3.609375 14.414062 3.535156 L 13.667969 3.125 L 14.171875 1.746094 C 14.476562 1.566406 14.746094 1.402344 14.96875 1.261719 C 15.015625 1.734375 15.121094 2.28125 15.277344 2.902344 C 15.960938 5.585938 17.429688 11.042969 18.046875 13.328125 L 18.046875 14.046875 C 16.769531 11.953125 14.398438 7.839844 13.621094 4.929688 L 14.46875 4.296875 C 14.589844 4.203125 14.660156 4.054688 14.648438 3.898438 Z M 9.386719 34.078125 C 7.855469 34.566406 6.851562 34.292969 6.441406 34.121094 C 6.484375 31.953125 6.769531 18.027344 6.871094 11.558594 C 6.9375 7.300781 7.59375 5.597656 8.027344 4.933594 C 8.496094 6.660156 9.660156 11.3125 10.042969 16.152344 C 10.042969 16.160156 10.628906 20.757812 10.152344 24.121094 C 9.785156 26.738281 9.261719 31.101562 9.386719 34.078125 Z M 14.550781 36.066406 C 12.855469 36.222656 11.027344 35.570312 10.410156 35.324219 C 10.121094 33.445312 10.351562 30.210938 10.640625 27.546875 C 11.3125 27.792969 11.964844 27.859375 12.472656 27.859375 C 13.050781 27.859375 13.445312 27.773438 13.476562 27.765625 C 13.652344 27.726562 13.789062 27.589844 13.824219 27.414062 L 14.3125 24.964844 C 14.339844 24.839844 14.3125 24.714844 14.238281 24.609375 C 14.164062 24.507812 14.050781 24.441406 13.929688 24.425781 L 11.082031 24.046875 C 11.519531 20.640625 10.988281 16.378906 10.949219 16.070312 C 10.535156 10.863281 9.234375 5.875 8.824219 4.402344 C 10.085938 3.984375 11.636719 3.191406 12.941406 2.457031 L 12.679688 3.179688 C 12.601562 3.386719 12.691406 3.625 12.886719 3.730469 L 13.359375 3.992188 L 12.832031 4.382812 C 12.6875 4.492188 12.621094 4.675781 12.664062 4.851562 C 13.59375 8.769531 17.441406 14.828125 18.046875 15.761719 L 18.046875 32.054688 C 17.035156 35.308594 14.820312 35.996094 14.550781 36.066406 Z M 10.746094 26.609375 C 10.820312 25.996094 10.890625 25.433594 10.957031 24.945312 L 13.328125 25.261719 L 12.996094 26.921875 C 12.550781 26.972656 11.648438 27 10.746094 26.609375 Z M 17.863281 34.554688 C 18.089844 34.21875 18.304688 33.84375 18.5 33.414062 C 18.695312 33.84375 18.910156 34.21875 19.136719 34.554688 Z M 26.589844 35.324219 C 25.972656 35.570312 24.144531 36.222656 22.449219 36.066406 C 22.171875 35.992188 19.964844 35.304688 18.953125 32.058594 L 18.953125 15.761719 C 19.558594 14.828125 23.40625 8.769531 24.335938 4.851562 C 24.378906 4.675781 24.3125 4.492188 24.167969 4.382812 L 23.640625 3.992188 L 24.113281 3.730469 C 24.308594 3.625 24.398438 3.386719 24.320312 3.179688 L 24.058594 2.457031 C 25.363281 3.191406 26.914062 3.984375 28.175781 4.402344 C 27.765625 5.875 26.464844 10.863281 26.050781 16.070312 C 26.011719 16.378906 25.480469 20.640625 25.917969 24.046875 L 23.070312 24.425781 C 22.945312 24.441406 22.835938 24.507812 22.761719 24.609375 C 22.6875 24.714844 22.660156 24.839844 22.6875 24.964844 L 23.175781 27.414062 C 23.210938 27.589844 23.347656 27.726562 23.523438 27.765625 C 23.554688 27.773438 23.949219 27.859375 24.527344 27.859375 C 25.035156 27.859375 25.6875 27.792969 26.359375 27.546875 C 26.644531 30.210938 26.878906 33.445312 26.589844 35.324219 Z M 26.253906 26.609375 C 25.359375 26.996094 24.449219 26.96875 24.003906 26.921875 L 23.671875 25.261719 L 26.042969 24.945312 C 26.109375 25.433594 26.179688 25.996094 26.253906 26.609375 Z M 27.613281 34.074219 C 27.738281 31.097656 27.214844 26.738281 26.847656 24.121094 C 26.371094 20.757812 26.957031 16.160156 26.957031 16.152344 C 27.339844 11.316406 28.503906 6.660156 28.972656 4.933594 C 29.40625 5.597656 30.0625 7.300781 30.128906 11.558594 C 30.230469 18.023438 30.515625 31.953125 30.558594 34.121094 C 30.144531 34.292969 29.140625 34.566406 27.613281 34.074219 Z M 27.613281 34.074219 "/>
</g>
</svg>
