<svg xmlns="http://www.w3.org/2000/svg" width="37" height="37"><path style="stroke:none;fill-rule:nonzero;fill:#000;fill-opacity:1" d="M29.29 37H19.62a.523.523 0 0 1-.523-.523V13.93l-1.371-.004v22.55c0 .29-.235.524-.524.524H7.711a.523.523 0 0 1-.524-.523V4.023c0-.718.368-1.351.922-1.722V.523c0-.289.235-.523.524-.523h19.953c.289 0 .523.234.523.523V2.47c.43.379.703.937.703 1.554v32.454c0 .289-.234.523-.523.523Zm-9.145-1.047h8.62V8.621h-.288A4.428 4.428 0 0 1 24.055 4.2V2.996H21.14v6.106c0 .8-.446 1.52-1.16 1.875l-.958.48v1.426l.598.004c.29 0 .524.234.524.52Zm-11.91 0h8.449v-22.55a.523.523 0 0 1 .52-.524h.773V2.996h-5.032V4.2a4.428 4.428 0 0 1-4.422 4.422h-.289ZM19.022 2.996v7.293l.489-.246c.36-.18.582-.54.582-.941V2.996Zm6.079 0V4.2a3.382 3.382 0 0 0 3.375 3.38h.289V4.022c0-.566-.461-1.027-1.028-1.027ZM8.234 7.578h.29A3.382 3.382 0 0 0 11.897 4.2V2.996H9.262c-.567 0-1.028.461-1.028 1.027ZM24.578 1.95h3.485v-.902H9.155v.902Zm0 0" id="surface1"/></svg>