<svg xmlns="http://www.w3.org/2000/svg" width="37" height="37"><g id="surface1"><path style="fill-rule:nonzero;fill:#fff;fill-opacity:1;stroke-width:5;stroke-linecap:butt;stroke-linejoin:miter;stroke:#000;stroke-opacity:1;stroke-miterlimit:4" d="M406.582 245.49c-45.84 42.9-29.303 84.765-39.87 127.065h186.86c-13.793-43.116-1.51-100.368-44.193-127.825-35.958-7.069-70.201-6.96-102.797.76Zm0 0" transform="matrix(.05692 0 0 .07184 -7.542 -17.032)"/><path style="fill-rule:nonzero;fill:#fff;fill-opacity:1;stroke-width:5;stroke-linecap:butt;stroke-linejoin:miter;stroke:#000;stroke-opacity:1;stroke-miterlimit:4" d="m188.565 700.465-53.595-24.63 22.92-41.43c-4.803-9.08 1.373-18.106 5.696-27.131 40.076-82.48 86.946-185.35 118.581-281.315 4.255-8.373 9.608-15.876 21.41-18.594 36.646-17.29 52.086-24.358 88.8-32.242 10.636 34.308 63.545 64.538 85.092 109.394l5.696 302.845-7.137 60.025-160.578-15.713c7.274-122.823 4.254-186.763 2.676-282.782-24.636 74.977-68.83 156.642-98.818 209.762-4.048 2.556-2.058 8.047-12.9 7.177l-1.785 11.037Zm0 0" transform="matrix(.05692 0 0 .07184 -7.542 -17.032)"/><path style="fill-rule:nonzero;fill:#fff;fill-opacity:1;stroke-width:5;stroke-linecap:butt;stroke-linejoin:miter;stroke:#000;stroke-opacity:1;stroke-miterlimit:4" d="m458.049 353.145-53.595-26.75-60.182 35.123 35.272-93.735 22.508-18.921c-5.901 30.556 4.667 38.114 11.46 50.945Zm0 0" transform="matrix(.05692 0 0 .07184 -7.542 -17.032)"/><path style="stroke:none;fill-rule:nonzero;fill:#000;fill-opacity:1" d="M3.64 31.285c0 .223-.14.402-.316.402-.172 0-.316-.18-.316-.402 0-.219.144-.398.316-.398.176 0 .317.18.317.398Zm0 0"/><path style="fill-rule:nonzero;fill:#fff;fill-opacity:1;stroke-width:5;stroke-linecap:butt;stroke-linejoin:miter;stroke:#000;stroke-opacity:1;stroke-miterlimit:4" d="m726.572 702.477 53.595-24.63-22.852-41.43c4.735-9.026-1.372-18.106-5.695-27.131-40.077-82.48-86.946-185.35-118.582-281.315-4.254-8.373-9.675-15.876-21.41-18.595-36.714-17.29-51.124-26.37-87.838-34.253-10.636 34.308-64.574 66.55-86.122 111.405l-5.696 302.846 7.137 60.025 160.579-15.713c-7.275-122.77-4.255-186.764-2.608-282.783 24.567 74.978 68.76 156.643 98.817 209.817 3.98 2.501 2.06 7.993 12.833 7.123l1.784 11.092Zm0 0" transform="matrix(.05692 0 0 .07184 -7.542 -17.032)"/><path style="stroke:none;fill-rule:nonzero;fill:#000;fill-opacity:1" d="M34.008 31.492c0 .223-.14.399-.317.399-.175 0-.316-.176-.316-.399 0-.219.14-.398.316-.398s.317.18.317.398ZM18.512 11.148c0 .22-.14.399-.317.399-.172 0-.316-.18-.316-.399 0-.218.144-.398.316-.398.176 0 .317.18.317.398ZM18.523 17.184c0 .218-.14.398-.316.398s-.316-.18-.316-.398c0-.223.14-.399.316-.399s.316.176.316.399ZM18.523 23.34c0 .223-.14.398-.316.398s-.316-.175-.316-.398c0-.219.14-.399.316-.399s.316.18.316.399ZM18.441 29.191c0 .22-.14.399-.316.399s-.316-.18-.316-.399c0-.222.14-.398.316-.398s.316.176.316.398Zm0 0"/><path style="fill-rule:nonzero;fill:#fff;fill-opacity:1;stroke-width:5;stroke-linecap:butt;stroke-linejoin:miter;stroke:#000;stroke-opacity:1;stroke-miterlimit:4" d="m457.98 352.438 53.595-26.75 60.183 35.123-35.273-93.735-22.508-18.976c5.902 30.611-4.598 38.169-11.391 51Zm0 0" transform="matrix(.05692 0 0 .07184 -7.542 -17.032)"/><path style="stroke:none;fill-rule:nonzero;fill:#000;fill-opacity:1" d="M17.875 2.84h1.32v.906h-1.32Zm0 0"/><path style="fill:none;stroke-width:5;stroke-linecap:butt;stroke-linejoin:miter;stroke:#000;stroke-opacity:1;stroke-miterlimit:4" d="M403.905 282.028c39.047-8.917 74.662-6.742 108.974 0" transform="matrix(.05692 0 0 .07184 -7.542 -17.032)"/></g></svg>