<svg xmlns="http://www.w3.org/2000/svg" width="37" height="37"><g id="surface1"><path style="stroke:none;fill-rule:nonzero;fill:#000;fill-opacity:1" d="M19.71 18.863a.456.456 0 0 1 0-.91.459.459 0 0 1 .458.457.46.46 0 0 1-.457.453ZM19.71 25.008a.456.456 0 0 1 0-.91.459.459 0 0 1 .458.457.46.46 0 0 1-.457.453ZM25.418 12.527l-1.406-2.41h-.004a.462.462 0 0 0-.383-.222.463.463 0 0 0-.398.222l-1.41 2.41a.455.455 0 0 0 .394.684h2.816a.455.455 0 0 0 .39-.684ZM23 12.301l.617-1.051.617 1.05Zm0 0"/><path style="stroke:none;fill-rule:nonzero;fill:#000;fill-opacity:1" d="M31.04 11.547c-.106-6.965-1.806-7.793-2.188-7.89-2.512-.684-6.957-3.555-7-3.583a.468.468 0 0 0-.25-.074h-6.204a.468.468 0 0 0-.25.074c-.043.028-4.484 2.899-7 3.582-.382.098-2.082.926-2.187 7.89-.11 6.985-.434 22.68-.434 22.84-.004.157.07.301.203.387.043.028.754.489 2.02.489.488 0 1.059-.07 1.703-.258.027.262.063.504.106.726.027.145.125.27.257.329.094.043 2.094.941 4.2.941.218 0 .695-.035.714-.04.079-.019 1.243-.3 2.399-1.5h2.742c1.156 1.2 2.32 1.481 2.399 1.5.02.005.496.04.714.04 2.102 0 4.106-.898 4.2-.941a.452.452 0 0 0 .257-.329c.043-.222.075-.464.102-.726a6.143 6.143 0 0 0 1.707.258c1.266 0 1.977-.457 2.02-.489a.443.443 0 0 0 .203-.386c0-.16-.325-15.856-.434-22.84Zm-9.317-8.645c.156-.62.257-1.168.308-1.64.223.14.492.304.797.484l.504 1.379-.746.41a.46.46 0 0 0-.234.363.461.461 0 0 0 .18.399l.847.633c-.777 2.91-3.149 7.023-4.426 9.117v-.719c.617-2.285 2.086-7.742 2.77-10.426ZM21.148.91c-.023.469-.128 1.063-.304 1.77a825.856 825.856 0 0 1-2.344 8.843 825.856 825.856 0 0 1-2.344-8.843c-.18-.707-.277-1.301-.304-1.77Zm-6.5 2.988a.46.46 0 0 0-.234-.363l-.746-.41.504-1.379c.305-.18.574-.344.797-.484.047.472.152 1.02.308 1.64.684 2.684 2.153 8.141 2.77 10.426v.719C16.77 11.953 14.398 7.84 13.62 4.93l.848-.633a.461.461 0 0 0 .18-.399Zm-5.261 30.18c-1.532.488-2.535.215-2.946.043.043-2.168.329-16.094.43-22.562.066-4.258.723-5.961 1.156-6.625.47 1.726 1.633 6.378 2.016 11.218 0 .008.586 4.606.11 7.97-.368 2.616-.891 6.98-.766 9.956Zm5.164 1.988c-1.696.157-3.524-.496-4.14-.742-.29-1.879-.06-5.113.23-7.777a5.36 5.36 0 0 0 1.832.312 4.85 4.85 0 0 0 1.004-.093.452.452 0 0 0 .347-.352l.489-2.45a.444.444 0 0 0-.075-.355.458.458 0 0 0-.308-.183l-2.848-.38c.438-3.405-.094-7.667-.133-7.976-.414-5.207-1.715-10.195-2.125-11.668 1.262-.418 2.813-1.21 4.117-1.945l-.261.723a.45.45 0 0 0 .207.55l.472.262-.527.39a.453.453 0 0 0-.168.47c.93 3.918 4.777 9.976 5.383 10.91v16.293c-1.012 3.254-3.227 3.941-3.496 4.011Zm-3.805-9.457c.074-.613.145-1.175.211-1.664l2.371.317-.332 1.66c-.445.05-1.348.078-2.25-.313Zm7.117 7.946c.227-.336.442-.711.637-1.14.195.429.41.804.637 1.14Zm8.727.77c-.617.245-2.445.898-4.14.741-.278-.074-2.485-.761-3.497-4.007V15.762c.606-.934 4.453-6.992 5.383-10.91a.453.453 0 0 0-.168-.47l-.527-.39.472-.262a.45.45 0 0 0 .207-.55l-.261-.723c1.304.734 2.855 1.527 4.117 1.945-.41 1.473-1.711 6.461-2.125 11.668-.04.309-.57 4.57-.133 7.977l-2.848.379a.45.45 0 0 0-.383.539l.489 2.45a.452.452 0 0 0 .347.35 4.85 4.85 0 0 0 1.004.094 5.36 5.36 0 0 0 1.832-.312c.286 2.664.52 5.898.23 7.777Zm-.336-8.716c-.895.387-1.805.36-2.25.313l-.332-1.66 2.371-.317c.066.489.137 1.051.21 1.664Zm1.36 7.465c.124-2.976-.4-7.336-.766-9.953-.477-3.363.109-7.96.109-7.969.383-4.836 1.547-9.492 2.016-11.218.433.664 1.09 2.367 1.156 6.625.101 6.464.387 20.394.43 22.562-.414.172-1.418.445-2.946-.047Zm0 0"/></g></svg>